<svg viewBox="0 0 64 64" fill="none" xmlns="http://www.w3.org/2000/svg">
  <circle cx="32" cy="32" r="30" fill="white" stroke="#e8e7e4" stroke-width="1"/>
  <circle cx="26" cy="28" r="2" fill="#37352f"/>
  <circle cx="38" cy="28" r="2" fill="#37352f"/>
  <path d="M22 24c2 0 4 1 4 3s-1 3-4 3-4-1-4-3 2-3 4-3zm20 0c2 0 4 1 4 3s-1 3-4 3-4-1-4-3 2-3 4-3z" stroke="#37352f" stroke-width="1.2" fill="none" stroke-linecap="round"/>
  <path d="M30 38c0-2 2-4 4-4s4 2 4 4" stroke="#37352f" stroke-width="1.2" fill="none" stroke-linecap="round"/>
  <path d="M32 12c-10 0-14 5-14 9v2h28v-2c0-4-4-9-14-9z" fill="#c4a574" stroke="#37352f" stroke-width="1.5" stroke-linejoin="round"/>
</svg>
